<svg xmlns="http://www.w3.org/2000/svg" xmlns:xlink="http://www.w3.org/1999/xlink" width="500" zoomAndPan="magnify" viewBox="0 0 375 374.999991" height="500" preserveAspectRatio="xMidYMid meet" version="1.0"><defs><g/><clipPath id="4dce5c6d8e"><path d="M 87.199219 99.339844 L 349.40625 99.339844 L 349.40625 361.542969 L 87.199219 361.542969 Z M 87.199219 99.339844 " clip-rule="nonzero"/></clipPath><clipPath id="d2137c3aa3"><path d="M 218.300781 99.339844 L 231.019531 110.097656 L 245.710938 102.203125 L 255.902344 115.355469 L 271.921875 110.671875 L 279.140625 125.644531 L 295.785156 124.378906 L 299.71875 140.515625 L 316.265625 142.714844 L 316.738281 159.316406 L 332.464844 164.890625 L 329.457031 181.222656 L 343.675781 189.929688 L 337.316406 205.28125 L 349.40625 216.738281 L 339.976562 230.441406 L 349.40625 244.144531 L 337.316406 255.601562 L 343.675781 270.953125 L 329.457031 279.660156 L 332.464844 295.992188 L 316.738281 301.566406 L 316.265625 318.167969 L 299.71875 320.367188 L 295.785156 336.503906 L 279.140625 335.238281 L 271.921875 350.210938 L 255.902344 345.527344 L 245.710938 358.679688 L 231.019531 350.785156 L 218.300781 361.542969 L 205.582031 350.785156 L 190.894531 358.679688 L 180.703125 345.527344 L 164.683594 350.210938 L 157.464844 335.238281 L 140.816406 336.503906 L 136.886719 320.367188 L 120.335938 318.167969 L 119.867188 301.566406 L 104.136719 295.992188 L 107.148438 279.660156 L 92.929688 270.953125 L 99.285156 255.601562 L 87.199219 244.144531 L 96.628906 230.441406 L 87.199219 216.738281 L 99.285156 205.28125 L 92.929688 189.929688 L 107.148438 181.222656 L 104.136719 164.890625 L 119.867188 159.316406 L 120.335938 142.714844 L 136.886719 140.515625 L 140.816406 124.378906 L 157.464844 125.644531 L 164.683594 110.671875 L 180.703125 115.355469 L 190.894531 102.203125 L 205.582031 110.097656 Z M 218.300781 99.339844 " clip-rule="nonzero"/></clipPath><clipPath id="62270bcb53"><path d="M 25.59375 29.089844 L 111.328125 29.089844 L 111.328125 114.820312 L 25.59375 114.820312 Z M 25.59375 29.089844 " clip-rule="nonzero"/></clipPath><clipPath id="1dabc64c4a"><path d="M 68.460938 29.089844 L 82.101562 58.316406 L 111.328125 71.957031 L 82.101562 85.59375 L 68.460938 114.820312 L 54.820312 85.59375 L 25.59375 71.957031 L 54.820312 58.316406 Z M 68.460938 29.089844 " clip-rule="nonzero"/></clipPath></defs><g clip-path="url(#4dce5c6d8e)"><g clip-path="url(#d2137c3aa3)"><path fill="#efb714" d="M 87.199219 99.339844 L 349.40625 99.339844 L 349.40625 361.542969 L 87.199219 361.542969 Z M 87.199219 99.339844 " fill-opacity="1" fill-rule="nonzero"/></g></g><g fill="#000000" fill-opacity="1"><g transform="translate(51.174244, 304.359104)"><g><path d="M 106.960938 0 L 106.960938 -19.847656 C 106.960938 -108.429688 37.125 -91.152344 37.125 -106.589844 C 37.125 -118.351562 83.804688 -118.351562 89.316406 -118.351562 L 119.089844 -118.351562 C 185.617188 -118.351562 149.964844 -50.355469 149.964844 0 L 227.886719 0 C 227.886719 -63.585938 238.175781 -124.234375 237.808594 -197.378906 C 237.808594 -197.378906 237.441406 -250.304688 215.757812 -257.289062 C 215.757812 -257.289062 149.964844 -257.289062 149.964844 -257.289062 C 149.964844 -257.289062 164.296875 -234.867188 164.296875 -185.617188 C 164.296875 -144.816406 145.921875 -133.789062 119.089844 -133.789062 L 75.714844 -133.789062 C 46.3125 -133.789062 38.226562 -134.160156 38.226562 -141.878906 C 38.226562 -159.152344 98.503906 -144.082031 98.503906 -221.269531 C 98.503906 -221.269531 98.503906 -242.585938 90.785156 -257.289062 C 90.785156 -257.289062 11.027344 -257.289062 11.027344 -257.289062 C 11.027344 -257.289062 29.035156 -234.867188 29.035156 -185.617188 C 29.035156 -115.78125 11.027344 -81.230469 11.027344 0 Z M 106.960938 0 "/></g></g></g><g clip-path="url(#62270bcb53)"><g clip-path="url(#1dabc64c4a)"><path fill="#af145a" d="M 25.59375 29.089844 L 111.328125 29.089844 L 111.328125 114.820312 L 25.59375 114.820312 Z M 25.59375 29.089844 " fill-opacity="1" fill-rule="nonzero"/></g></g></svg>